<?xml version="1.0" standalone="no"?><!DOCTYPE svg PUBLIC "-//W3C//DTD SVG 1.1//EN" "http://www.w3.org/Graphics/SVG/1.1/DTD/svg11.dtd"><svg class="icon" width="200px" height="200.00px" viewBox="0 0 1024 1024" version="1.1" xmlns="http://www.w3.org/2000/svg"><path fill="#333333" d="M567.00928 608.60416A61.44 61.44 0 0 0 512 669.71648v132.15744c0 9.70752-3.91168 19.0464-10.91584 26.07104a40.96 40.96 0 0 1-56.0128 1.31072L141.312 553.0624a54.90688 54.90688 0 0 1 0-82.1248L445.07136 194.74432c7.3728-6.69696 17.16224-10.42432 27.32032-10.42432C494.26432 184.32 512 201.25696 512 222.12608V354.304a61.44 61.44 0 0 0 55.00928 61.11232l272.9984 28.73344a68.23936 68.23936 0 0 1 0 135.74144l-272.9984 28.73344z" /></svg>