<?xml version="1.0" standalone="no"?><!DOCTYPE svg PUBLIC "-//W3C//DTD SVG 1.1//EN" "http://www.w3.org/Graphics/SVG/1.1/DTD/svg11.dtd"><svg class="icon" width="200px" height="200.00px" viewBox="0 0 1024 1024" version="1.1" xmlns="http://www.w3.org/2000/svg"><path fill="#333333" d="M332.12416 164.88448A62.09536 62.09536 0 0 1 391.0656 122.88h241.8688a62.0544 62.0544 0 0 1 58.94144 42.00448L719.1552 245.76l182.00576 65.4336a61.39904 61.39904 0 0 1 40.5504 64.43008l-33.77152 305.02912C894.83264 805.888 788.0704 901.12 660.6848 901.12H363.3152c-127.3856 0-234.14784-95.21152-247.25504-220.4672L82.28864 375.6032a61.39904 61.39904 0 0 1 40.5504-64.43008L304.8448 245.76l27.27936-80.87552zM819.2 450.56a40.96 40.96 0 1 0 0-81.92 40.96 40.96 0 0 0 0 81.92zM512 716.8a163.84 163.84 0 1 0 0-327.68 163.84 163.84 0 0 0 0 327.68z" /></svg>