<?xml version="1.0" standalone="no"?><!DOCTYPE svg PUBLIC "-//W3C//DTD SVG 1.1//EN" "http://www.w3.org/Graphics/SVG/1.1/DTD/svg11.dtd"><svg class="icon" width="200px" height="200.00px" viewBox="0 0 1024 1024" version="1.1" xmlns="http://www.w3.org/2000/svg"><path fill="#333333" d="M749.568 644.096a20.48 20.48 0 0 0-32.768 16.384V716.8a81.92 81.92 0 0 1-81.92 81.92H143.36a81.92 81.92 0 0 1-81.92-81.92V307.2a81.92 81.92 0 0 1 81.92-81.92h491.52a81.92 81.92 0 0 1 81.92 81.92v56.32a20.48 20.48 0 0 0 32.768 16.384l147.456-125.952A40.96 40.96 0 0 1 962.56 286.72v450.56a40.96 40.96 0 0 1-65.536 32.768l-147.456-125.952zM225.28 389.12a40.96 40.96 0 0 0-40.96 40.96v163.84a40.96 40.96 0 1 0 81.92 0v-163.84a40.96 40.96 0 0 0-40.96-40.96z m163.84 0a40.96 40.96 0 0 0-40.96 40.96v163.84a40.96 40.96 0 1 0 81.92 0v-163.84a40.96 40.96 0 0 0-40.96-40.96z m163.84 0a40.96 40.96 0 0 0-40.96 40.96v163.84a40.96 40.96 0 1 0 81.92 0v-163.84a40.96 40.96 0 0 0-40.96-40.96z" /></svg>